<svg xmlns="http://www.w3.org/2000/svg" viewBox="0 0 468.88 72.58" fill="#55596d"><title>Asset 16</title><g id="Layer_2" data-name="Layer 2"><g id="Layer_2-2" data-name="Layer 2"><path d="M120.28,65.63H123v5.29a9,9,0,0,1-5.27,1.66c-4.09,0-7.11-2.81-7.11-6.74s3-6.74,7.17-6.74a7,7,0,0,1,5.45,2.25l-1.94,1.79A4.41,4.41,0,0,0,118,61.67a4.17,4.17,0,1,0,0,8.34,4.79,4.79,0,0,0,2.35-.56Z"/><path d="M151.59,72.35l-2.51-3.63h-2.77v3.63h-3v-13h5.64c3.48,0,5.66,1.81,5.66,4.73a4.24,4.24,0,0,1-2.68,4.11l2.92,4.19Zm-2.83-10.57h-2.46v4.54h2.46c1.84,0,2.77-.86,2.77-2.27S150.61,61.78,148.77,61.78Z"/><path d="M173.54,65.84c0-3.87,3-6.74,7.13-6.74s7.13,2.85,7.13,6.74-3,6.74-7.13,6.74S173.54,69.71,173.54,65.84Zm11.21,0A4.08,4.08,0,1,0,180.67,70,4,4,0,0,0,184.75,65.84Z"/><path d="M207.4,66.62v-7.3h3v7.19c0,2.48,1.08,3.5,2.9,3.5s2.9-1,2.9-3.5V59.32h3v7.3c0,3.83-2.2,6-5.9,6S207.4,70.45,207.4,66.62Z"/><path d="M250.95,64c0,2.9-2.18,4.71-5.66,4.71h-2.62v3.59h-3v-13h5.64C248.77,59.32,250.95,61.13,250.95,64Zm-3.05,0c0-1.43-.93-2.27-2.77-2.27h-2.46V66.3h2.46C247,66.3,247.9,65.46,247.9,64Z"/><path d="M293.52,59.32h3v13h-3Z"/><path d="M329,59.32v13h-2.48L320,64.44v7.91h-3v-13h2.5L326,67.23V59.32Z"/><path d="M348.74,65.84c0-3.93,3-6.74,7.07-6.74a6.73,6.73,0,0,1,5.36,2.31l-1.94,1.79A4.19,4.19,0,0,0,356,61.67,4.17,4.17,0,1,0,356,70a4.15,4.15,0,0,0,3.28-1.54l1.94,1.79a6.69,6.69,0,0,1-5.38,2.33C351.76,72.58,348.74,69.76,348.74,65.84Z"/><path d="M0,42.39l4.88-11a30.85,30.85,0,0,0,14.84,4.11c4.3,0,5.84-.9,5.84-2.44C25.56,27.36.71,31.92.71,15.16.71,6.81,7.71,0,21.65,0c6,0,12.27,1.28,17,3.92L34,14.9a27.74,27.74,0,0,0-12.52-3.34c-4.43,0-5.84,1.28-5.84,2.83,0,5.4,24.86.9,24.86,17.47,0,8.22-7,15.16-20.94,15.16C12.08,47,4.5,45.15,0,42.39Z"/><path d="M82.15,34.56V46H44.77V1H81.31V12.46H59.67v5.27h19V28.65h-19v5.91Z"/><path d="M107,34.68h-4.11V46H87.73V1h21.65c12.52,0,20.49,6.55,20.49,17a15.06,15.06,0,0,1-8.48,14.13L130.83,46H114.65Zm1.41-22h-5.52V23.25h5.52c4.17,0,6.17-2,6.17-5.27S112.59,12.72,108.42,12.72Z"/><path d="M172.71,34.56V46H135.33V1h36.55V12.46H150.23v5.27h19V28.65h-19v5.91Z"/><path d="M222.61,1V46H210.15L193.07,25.56V46H178.3V1h12.46l17.08,20.42V1Z"/><path d="M229.68,1h22.16c15,0,25.37,8.54,25.37,22.48S266.87,46,251.84,46H229.68Zm21.52,33.14c6.36,0,10.73-3.79,10.73-10.66s-4.37-10.66-10.73-10.66h-6.36V34.17Z"/><path d="M290.34,1H305.5V46H290.34Z"/><path d="M354.7,18c0,10.41-8,17-20.49,17h-6.49V46H312.56V1h21.65C346.73,1,354.7,7.58,354.7,18Zm-15.29,0c0-3.28-2-5.27-6.17-5.27h-5.52V23.25h5.52C337.42,23.25,339.41,21.26,339.41,18Z"/><path d="M359.39,1h15.16V46H359.39Z"/><path d="M391.37,12.78H378.2V1H419.7V12.78H406.53V46H391.37Z"/><path d="M451.92,29.67V46H436.76V29.48L419.81,1h16L445,16.57,454.23,1h14.64Z"/><path d="M286.4,23.51c0-12.58-8.42-20.76-21.11-22.24,8.79,2.58,14.91,10.57,14.91,22.24s-6.11,19.66-14.91,22.24C278,44.27,286.4,36.09,286.4,23.51Z"/></g></g></svg>